<svg xmlns="http://www.w3.org/2000/svg" width="26" height="26" viewBox="0 0 26 26"><g transform="translate(0)"><path d="M105.378,91H93.27A2.273,2.273,0,0,0,91,93.27v12.108a2.273,2.273,0,0,0,2.27,2.27h12.108a2.273,2.273,0,0,0,2.27-2.27V93.27A2.273,2.273,0,0,0,105.378,91Zm-6.054,13.621a5.3,5.3,0,1,1,5.3-5.3A5.3,5.3,0,0,1,99.324,104.621Zm5.3-9.081a1.513,1.513,0,1,1,1.513-1.513A1.515,1.515,0,0,1,104.621,95.54Zm0,0" transform="translate(-86.324 -86.324)"/><path d="M184.854,181a3.854,3.854,0,1,0,3.854,3.854A3.858,3.858,0,0,0,184.854,181Zm0,0" transform="translate(-171.854 -171.854)"/><path d="M23.425,0H2.575C.475,0,0,.475,0,2.575v20.85C0,25.525.475,26,2.575,26h20.85c2.1,0,2.575-.475,2.575-2.575V2.575C26,.475,25.525,0,23.425,0ZM22.9,19.094A3.813,3.813,0,0,1,19.094,22.9H6.906A3.813,3.813,0,0,1,3.1,19.094V6.906A3.813,3.813,0,0,1,6.906,3.1H19.094A3.813,3.813,0,0,1,22.9,6.906Zm0,0" transform="translate(0)"/></g></svg>