<svg xmlns="http://www.w3.org/2000/svg" width="26" height="26" viewBox="0 0 26 26"><defs><style>.a{fill:#131217;}</style></defs><path class="a" d="M24.125,0H1.875A1.875,1.875,0,0,0,0,1.875v22.25A1.875,1.875,0,0,0,1.875,26h22.25A1.875,1.875,0,0,0,26,24.125V1.875A1.875,1.875,0,0,0,24.125,0ZM9.223,19.652H6.056V10.127H9.223ZM7.64,8.826H7.619a1.65,1.65,0,1,1,.042-3.291A1.651,1.651,0,1,1,7.64,8.826Zm13,10.826H17.473v-5.1c0-1.281-.458-2.154-1.6-2.154a1.733,1.733,0,0,0-1.624,1.158,2.168,2.168,0,0,0-.1.773v5.319H10.975s.041-8.632,0-9.525h3.166v1.349A3.143,3.143,0,0,1,16.994,9.9c2.083,0,3.645,1.361,3.645,4.287Zm0,0" transform="translate(0)"/></svg>