<svg xmlns="http://www.w3.org/2000/svg" width="46" height="46" viewBox="0 0 46 46"><defs><style>.a{fill:#fff;}</style></defs><path class="a" d="M42.683,0H3.318A3.317,3.317,0,0,0,0,3.318V42.682A3.317,3.317,0,0,0,3.318,46H42.683A3.317,3.317,0,0,0,46,42.682V3.318A3.317,3.317,0,0,0,42.683,0ZM16.317,34.77h-5.6V17.917h5.6Zm-2.8-19.154H13.48a2.919,2.919,0,1,1,.074-5.823,2.921,2.921,0,1,1-.037,5.823Zm23,19.154h-5.6V25.754c0-2.266-.811-3.811-2.838-3.811A3.066,3.066,0,0,0,25.2,23.991a3.836,3.836,0,0,0-.184,1.367V34.77h-5.6s.073-15.271,0-16.852h5.6V20.3a5.561,5.561,0,0,1,5.048-2.782c3.685,0,6.449,2.409,6.449,7.585Zm0,0" transform="translate(0)"/></svg>