<svg xmlns="http://www.w3.org/2000/svg" width="20" height="46" viewBox="0 0 20 46"><defs><style>.a{fill:#fff;}</style></defs><g transform="translate(-1062.713 -859)"><path class="a" d="M242.3,120.038A1.307,1.307,0,0,0,241,121.345v2.6a1.307,1.307,0,0,0,2.613,0v-2.6A1.307,1.307,0,0,0,242.3,120.038Z" transform="translate(830.409 744.188)"/><g transform="translate(1062.713 859)"><path class="a" d="M143.124,60.038a8.2,8.2,0,0,0-8.108,8.269v16.5a8.2,8.2,0,0,0,8.108,8.269h3.784a8.2,8.2,0,0,0,8.108-8.269v-16.5a8.2,8.2,0,0,0-8.108-8.269Zm3.784,30.513h-3.784a5.691,5.691,0,0,1-5.628-5.74V74.557a4.773,4.773,0,0,0,2.4.645h10.245a4.773,4.773,0,0,0,2.4-.645V84.811A5.691,5.691,0,0,1,146.908,90.551Zm5.628-22.244v1.92a2.425,2.425,0,0,1-2.4,2.446H139.894a2.425,2.425,0,0,1-2.4-2.446v-1.92a5.691,5.691,0,0,1,5.628-5.74h3.784A5.691,5.691,0,0,1,152.536,68.307Z" transform="translate(-135.016 -60.038)"/><g transform="translate(2.783 46) rotate(-90)"><path class="a" d="M.387,7.779l6.535,5.776a1.417,1.417,0,0,0,1.848-.011,1.086,1.086,0,0,0-.012-1.655L3.165,6.946,8.758,2A1.086,1.086,0,0,0,8.77.348,1.417,1.417,0,0,0,6.922.337L.387,6.113a1.09,1.09,0,0,0,0,1.666Z" transform="translate(0)"/></g></g></g></svg>